<svg width="194" height="184" viewBox="0 0 194 184" fill="none" xmlns="http://www.w3.org/2000/svg"><g clip-path="url(#clip0)"><path opacity="0.3" d="M39.4421 184C36.6966 184 34.4762 181.775 34.4762 179.023C34.4762 176.272 36.6966 174.047 39.4421 174.047H142.511C145.256 174.047 147.477 176.272 147.477 179.023C147.477 181.775 145.256 184 142.511 184H39.4421Z" fill="#AFAFAF"/><path d="M130.869 154.531C129.188 151.088 125.048 149.645 121.597 151.329L111.785 156.125C108.35 157.809 106.909 161.973 108.59 165.417C110.27 168.86 114.411 170.303 117.861 168.619L127.673 163.823C131.124 162.154 132.549 157.989 130.869 154.531Z" fill="#F49000"/><path d="M11.7471 61.6741C33.276 53.6152 46.6584 47.6162 51.8793 43.662C54.8499 41.4217 56.9953 37.8133 58.3155 32.8517C60.896 23.1841 70.7978 17.4407 80.4445 20.0267C84.3452 21.0642 87.7808 23.3946 90.2113 26.6272L122.887 70.0937C140.65 93.729 135.939 127.317 112.37 145.119C88.786 162.921 55.27 158.2 37.5068 134.579L3.64565 89.5492C-2.35543 81.5655 -0.765147 70.199 7.20129 64.1849C8.58154 63.1325 10.1268 62.2905 11.7471 61.6741Z" fill="#58CC02"/><path d="M57.8354 59.524C64.5266 60.7719 70.0176 55.5697 70.5577 49.8564C71.4579 41.121 78.0741 48.2176 90.4213 71.1311L72.5381 84.6327C58.2705 67.0716 53.3796 58.6971 57.8354 59.524Z" fill="#8EE000"/><path d="M32.9459 71.7327C31.8657 70.0186 31.1606 68.049 30.9056 65.9742C30.7555 64.7112 31.8657 63.6738 33.126 63.9144L38.3319 64.9368C36.5916 62.877 35.4514 60.336 35.1063 57.5545C34.9563 56.2916 35.7964 55.4496 37.0417 55.7052L60.5959 60.0353C61.7211 60.2608 62.3512 61.3885 62.0212 62.4259C64.2866 63.734 66.342 65.5231 68.0223 67.7483L75.2836 77.4159C81.9448 86.2867 80.1895 98.8861 71.3379 105.577L70.2877 106.374C61.4361 113.049 48.8638 111.29 42.1876 102.419L34.9263 92.7518C30.2004 86.4671 29.7053 78.3331 32.9459 71.7327Z" fill="#89E219"/><path d="M86.3856 32.07L67.2871 35.5281C66.2819 35.7236 65.7869 37.0767 66.342 38.1893C68.9374 43.5719 74.0684 46.6391 79.0493 45.6618C84.0302 44.6845 87.6458 39.9184 88.0359 33.9494C88.1259 32.7316 87.4058 31.8746 86.3856 32.07Z" fill="#89E219"/><path d="M95.3872 32.1451L76.2887 35.6032C75.2836 35.7986 74.7885 37.1518 75.3436 38.2644C77.939 43.647 83.07 46.7142 88.0509 45.7369C93.0318 44.7596 96.6474 39.9934 97.0375 34.0245C97.1125 32.7916 96.3924 31.9346 95.3872 32.1451Z" fill="#8EE000"/><path d="M77.3539 35.528C84.3002 30.2808 94.172 31.679 99.4079 38.6403L111.875 55.209C117.111 62.1703 115.716 72.0634 108.77 77.3107C101.823 82.5579 91.9516 81.1597 86.7156 74.1984L74.2484 57.6297C69.0124 50.6684 70.4077 40.7603 77.3539 35.528Z" fill="#8EE000"/><path d="M129.714 2.0598C128.123 -0.0601515 125.138 -0.375888 123.082 1.17273L118.641 4.40528L105.679 13.8323L55.8551 51.8111C53.7998 53.3597 55.4097 54.3951 57 56.5L80.6246 93.7892C96.6325 115.064 127.253 120.461 147.747 103.938C167.835 87.745 171.066 59.4265 155.073 38.1368L140.2 16L129.714 2.0598Z" fill="white"/><path d="M44.078 69.4171C50.5741 64.5157 59.8008 65.8087 64.6917 72.3189L70.1677 79.5959C75.0586 86.1061 73.7683 95.3527 67.2721 100.254C60.776 105.156 51.5493 103.863 46.6584 97.3524L41.1824 90.0604C36.2916 83.5652 37.5818 74.3186 44.078 69.4171Z" fill="white"/><path d="M80.1594 42.6847C85.3504 38.7605 92.7317 39.798 96.6474 45.0001L105.409 56.6674C109.325 61.8695 108.29 69.2668 103.099 73.191C97.9076 77.1152 90.5263 76.0777 86.6106 70.8756L77.849 59.2083C73.9333 54.0062 74.9685 46.6089 80.1594 42.6847Z" fill="white"/><path d="M49.5539 76.1229C52.5995 73.8225 56.9203 74.439 59.2157 77.4911L63.9265 83.7457C66.2219 86.7978 65.6068 91.128 62.5613 93.4283C59.5157 95.7287 55.195 95.1123 52.8995 92.0601L48.1887 85.8055C45.8933 82.7534 46.5084 78.4233 49.5539 76.1229Z" fill="#4B4B4B"/><path d="M80.2945 77.1603C81.2547 75.762 82.5299 74.7998 84.1352 74.2585" stroke="#FFDE00" stroke-width="20.0772" stroke-linecap="round" stroke-linejoin="round"/><path d="M50.2146 86.6847C52.1998 85.1856 52.5923 82.3522 51.0914 80.3561C49.5905 78.3601 46.7645 77.9573 44.7794 79.4565C42.7943 80.9556 42.4018 83.789 43.9027 85.785C45.4036 87.7811 48.2295 88.1839 50.2146 86.6847Z" fill="white"/><path d="M86.1155 60.0956C88.0959 58.592 88.501 55.7654 87.0007 53.7658C85.5004 51.7661 82.6649 51.3752 80.6845 52.8636C78.7042 54.3672 78.2991 57.1938 79.7994 59.1935C81.2997 61.2082 84.1352 61.5991 86.1155 60.0956Z" fill="white"/><path d="M52.3744 108.975L45.5782 100.36C45.6082 100.329 45.6082 100.329 45.6832 100.284C46.1033 99.9536 46.7034 99.5176 47.4386 99.0214C48.5338 98.2697 49.749 97.5029 51.0692 96.7511C54.7299 94.6462 58.6606 92.9021 62.7713 91.7595C68.1723 90.2559 73.5283 89.8951 78.6742 90.9927L76.4088 101.728C73.1232 101.036 69.5225 101.277 65.6968 102.344C62.5613 103.216 59.4407 104.599 56.5152 106.283C55.45 106.9 54.4748 107.516 53.6047 108.103C53.0496 108.463 52.6445 108.764 52.3744 108.975C52.3594 108.99 52.3594 108.99 52.3744 108.975Z" fill="#89E219"/><path d="M130.587 2.80401L114.192 113.246C113.359 113.147 112.511 113.077 111.673 112.944C99.1109 110.61 87.86 103.457 80.3158 92.9729L59.0108 63.5825C59.0108 63.5825 54.0539 56.3607 53.8829 56.3552C52.9745 54.3599 53.5599 52.0201 55.296 50.7559L105.995 13.8377L97.9766 67.9249C97.5473 71.0429 99.6716 73.9735 102.778 74.4979C105.876 75.0101 108.763 72.9271 109.243 69.8279L118.957 4.41701L123.777 0.907305C125.513 -0.356893 128.054 -0.331062 129.496 1.35035C129.813 1.78811 130.201 2.32314 130.587 2.80401ZM146.841 104.985C156.915 97.5932 163.552 86.4063 165.318 73.8989C166.985 61.2035 163.674 48.2686 156.057 37.8377L140.173 15.9256L125.717 113.307C133.363 112.365 140.637 109.503 146.841 104.985ZM99.4446 123.762C98.029 124.291 96.6794 125.014 95.4653 125.898C92.4126 128.084 90.2679 131.318 89.4333 135.028C93.9048 138.126 99.5749 138.809 104.557 136.853C105.972 136.324 107.322 135.601 108.536 134.717C111.589 132.532 113.733 129.298 114.556 125.596C110.097 122.49 104.426 121.807 99.4446 123.762ZM88.3525 119.54C88.5346 119.408 88.7288 119.266 88.9021 119.122C88.3905 117.469 87.6163 115.915 86.5905 114.525C84.4066 111.564 81.3529 109.347 77.8892 108.228C73.0239 106.532 67.6802 107.246 63.4941 110.146C63.312 110.278 63.1177 110.42 62.9444 110.564C63.456 112.217 64.2302 113.771 65.2561 115.161C67.4399 118.122 70.4936 120.339 73.9574 121.458C78.8105 123.163 84.1542 122.449 88.3525 119.54ZM128.238 125.126C127.643 125.56 127.075 126.029 126.542 126.548C122.606 130.176 120.755 135.555 121.59 140.929C126.087 141.964 130.763 140.994 134.418 138.257C135.013 137.824 135.582 137.355 136.115 136.836C140.051 133.208 141.902 127.829 141.067 122.455C136.569 121.419 131.894 122.39 128.238 125.126ZM178.145 26.6765C177.954 26.7969 177.772 26.9295 177.578 27.071C173.533 30.1652 171.204 35.0381 171.31 40.2C171.298 43.8685 172.449 47.4521 174.597 50.4401C175.61 51.8385 176.834 53.0656 178.244 54.0639C178.435 53.9435 178.629 53.802 178.811 53.6694C182.856 50.5752 185.194 45.7144 185.079 40.5404C185.091 36.8719 183.94 33.2883 181.792 30.3003C180.779 28.9019 179.546 27.6626 178.145 26.6765ZM182.792 62.3081C181.565 63.201 180.475 64.2553 179.535 65.4411C176.14 69.5855 175.036 75.2014 176.594 80.4209C180.351 80.7686 184.092 79.7357 187.109 77.5013C188.335 76.6084 189.426 75.5541 190.365 74.3683C193.761 70.2239 194.865 64.608 193.307 59.3884C189.553 59.0197 185.809 60.0736 182.792 62.3081ZM173.744 92.38C173.108 92.7314 172.478 93.1159 171.883 93.5491C168.157 96.188 165.791 100.345 165.384 104.952C170.213 107.417 175.902 107.306 180.561 104.675C181.196 104.324 181.827 103.94 182.421 103.506C186.147 100.867 188.513 96.7108 188.921 92.1039C184.079 89.6471 178.391 89.7578 173.744 92.38Z" fill="#FFAA00"/><path d="M102.228 70.0938C105.709 67.5529 110.66 69.1617 111.995 73.2662C118.401 92.9773 111.335 114.944 94.157 127.453C76.9789 139.962 53.9197 139.887 37.1767 127.693C33.6961 125.153 33.6961 119.95 37.1767 117.409L102.228 70.0938Z" fill="#58CC02"/><path d="M138.325 40.4296L151.287 30.6417C154.078 28.5368 158.038 29.0931 160.139 31.8897L167.715 41.9632C169.816 44.7597 169.26 48.729 166.47 50.8339L162.794 53.6154C157.768 57.4193 150.732 57.0134 146.156 52.6682L138.055 44.9552C136.87 43.8276 136.825 41.9632 137.95 40.7754C138.07 40.6401 138.19 40.5198 138.325 40.4296Z" fill="#58CC02"/><path d="M85.3504 167.025C85.3504 163.191 82.2448 160.079 78.4191 160.079H67.5122C63.6865 160.079 60.5809 163.191 60.5809 167.025C60.5809 170.859 63.6865 173.972 67.5122 173.972H78.4191C82.2448 173.987 85.3504 170.874 85.3504 167.025Z" fill="#F49000"/></g><defs><clipPath id="clip0"><rect width="194" height="184" fill="white"/></clipPath></defs></svg>