<svg width="49" height="49" viewBox="0 0 49 49" version="1.1" xmlns="http://www.w3.org/2000/svg"><title>feature-lingot</title><g stroke="none" stroke-width="1" fill="none" fill-rule="evenodd"><g><path d="M14.93 14.497l7.735-4.824a4.099 4.099 0 0 1 4.338 0l7.736 4.824a4.099 4.099 0 0 1 1.93 3.478v12.179c0 1.415-.73 2.73-1.93 3.478l-7.736 4.824a4.099 4.099 0 0 1-4.338 0l-7.735-4.824A4.099 4.099 0 0 1 13 30.154v-12.18c0-1.414.73-2.729 1.93-3.477z" fill="#FC4848"/><path d="M24.868 13.29v3.972c0 .45-.232.87-.614 1.108l-3.524 2.203a1.307 1.307 0 0 1-1.46-.05l-2.898-2.099a1.307 1.307 0 0 1 .066-2.161l6.423-4.077a1.307 1.307 0 0 1 2.007 1.103z" fill="#FFF" opacity=".793"/></g></g></svg>