<svg width="49" height="49" viewBox="0 0 49 49" version="1.1" xmlns="http://www.w3.org/2000/svg"><title>feature-speaker</title><g stroke="none" stroke-width="1" fill="none" fill-rule="evenodd"><g><path d="M13.888 17.2h6.657v14.3h-6.657A3.888 3.888 0 0 1 10 27.612v-6.524a3.888 3.888 0 0 1 3.888-3.888z" fill="#1CB0F6"/><path d="M19.227 17.85l7.102-5.92a1.296 1.296 0 0 1 2.126.995v24.15a1.296 1.296 0 0 1-2.126.996l-7.102-5.92V17.85z" fill="#1CB0F6"/><path d="M33.09 27.6c1.457 0 2.637-1.164 2.637-2.6 0-1.436-1.18-2.6-2.636-2.6M35.872 31.5C38.84 30.58 41 27.737 41 24.372c0-3.42-2.232-6.301-5.273-7.172" stroke="#1CB0F6" stroke-width="2.592" stroke-linecap="round"/></g></g></svg>